<?xml version="1.0" encoding="UTF-8" standalone="no"?>
<!DOCTYPE svg PUBLIC "-//W3C//DTD SVG 1.1//EN" "http://www.w3.org/Graphics/SVG/1.1/DTD/svg11.dtd">
<svg width="100%" height="100%" viewBox="0 0 512 512" version="1.1" xmlns="http://www.w3.org/2000/svg" xmlns:xlink="http://www.w3.org/1999/xlink" xml:space="preserve" xmlns:serif="http://www.serif.com/" style="fill-rule:evenodd;clip-rule:evenodd;stroke-linejoin:round;stroke-miterlimit:2;">
    <rect x="0" y="0" width="512" height="512" style="fill-opacity:0;fill-rule:nonzero;"/>
    <g>
        <path d="M256,23.05C127.5,23.05 23.05,127.5 23.05,256C23.05,384.5 127.5,488.9 256,488.9C384.5,488.9 488.9,384.5 488.9,256C488.9,127.5 384.5,23.05 256,23.05ZM256,40.95C374.9,40.95 471.1,137.1 471.1,256C471.1,374.9 374.9,471.1 256,471.1C137.1,471.1 40.95,374.9 40.95,256C40.95,137.1 137.1,40.95 256,40.95Z" style="fill-rule:nonzero;"/>
    </g>
    <g transform="matrix(0.864293,0,0,0.864293,34.740962,24.041256)">
        <rect x="0" y="0" width="512" height="512" style="fill-opacity:0;fill-rule:nonzero;"/>
    </g>
    <g transform="matrix(0.864293,0,0,0.864293,34.740962,24.041256)">
        <path d="M303.6,116.9L275.1,103.4C197,130 170,171.2 146.9,213.6L182.2,246.6L148.4,247.4L155.9,281.1L189.7,289.3L167.9,345.6L200.9,343.3L182.2,392.8L230.9,405.5L203.2,436.3L300.6,494.8C341.2,420.8 348.7,346.8 365.1,272.8C365,222.1 365.8,171.1 340.4,128.1C349.9,92.96 351.4,56.34 338.9,17.18L307.4,23.18C303.1,54.43 298.2,85.68 303.6,116.9Z" style="fill-rule:nonzero;"/>
    </g>
    <g transform="matrix(0.221878,0,0,0.199174,342.125859,286.910212)">
        <rect x="0" y="0" width="512" height="512" style="fill-opacity:0;fill-rule:nonzero;"/>
    </g>
    <g transform="matrix(0.221878,0,0,0.199174,342.125859,286.910212)">
        <path d="M400.9,104.8C388.9,134.8 359.9,152.7 301.2,148.7C287.5,146.9 273.6,144.6 259.6,142C140.5,104.8 23.36,104.8 23.36,179.2C56.84,142 141.1,148.4 248.4,175.2C365.2,204.4 490.2,216.4 490.2,123.4C471.8,142.7 436.8,152 393.6,153.8C403.6,143.4 406.1,127.1 400.9,104.8ZM147,187.5C76.25,187.2 23.36,203.6 23.36,253.6C56.84,216.4 141.1,218.8 248.4,245.6C365.2,274.8 490.2,290.8 490.2,197.8C454.8,235 360,237.4 259.6,205.8C221.9,193.9 181.6,187.6 147,187.5ZM123.1,257.1C64.66,256.9 23.36,272.7 23.36,328C56.84,290.8 145.7,283.7 248.4,309.4C369.4,339.6 490.2,346.6 490.2,272.2C454.8,309.4 358.1,294.8 259.6,276.2C211.2,268.7 163.1,257.1 123.1,257.1ZM123.1,331.4C64.66,331.3 23.36,347.2 23.36,402.4C42.39,381.3 78.88,372.1 125.9,371.6C115.5,382 113,398.5 118.2,421C132.1,386.2 170.2,369.2 248.5,383.8C371.1,406.6 490.2,421 490.2,346.6C454.8,383.8 358.1,365.2 259.6,346.6C211.2,339 163.1,331.5 123.1,331.4Z" style="fill-rule:nonzero;"/>
    </g>
    <g transform="matrix(0.997899,-0.064791,0.064791,0.997899,-6.402936,26.389906)">
        <path d="M345.643,179.533C345.253,175.234 344.852,170.542 344.446,165.393C347.795,166.206 351.163,167.087 354.535,168.032C360.374,169.006 366.172,169.867 371.886,170.541C396.37,172.038 408.466,165.336 413.471,154.104C415.64,162.453 414.597,168.556 410.426,172.45C428.445,171.776 443.043,168.294 450.718,161.068C450.718,195.889 398.58,191.396 349.863,180.463C348.447,180.145 347.04,179.835 345.643,179.533Z"/>
    </g>
    <g transform="matrix(1,0,0,1,4.903831,0)">
        <path d="M348.434,206.504C347.891,201.756 347.283,196.334 346.633,189.876C349.286,190.499 351.925,191.181 354.535,191.92C396.412,203.752 435.952,202.853 450.718,188.925C450.718,223.745 398.58,217.755 349.863,206.822C349.386,206.715 348.91,206.609 348.434,206.504Z"/>
    </g>
    <g transform="matrix(1,0,0,1,4.903831,0)">
        <path d="M350.793,230.917C350.583,226.568 350.2,222.351 349.687,217.578C351.301,217.819 352.918,218.054 354.535,218.279C395.619,225.243 435.952,230.71 450.718,216.781C450.718,244.467 400.949,242.048 350.793,230.917Z"/>
    </g>
    <g transform="matrix(1,0,0,1,4.903831,-5.590643)">
        <path d="M350.075,258.595C350.5,253.025 350.764,248.321 350.888,244.125C352.103,244.295 353.319,244.467 354.535,244.638C395.619,251.602 435.952,258.566 450.718,244.638C450.718,272.464 401.152,267.115 350.075,258.595Z"/>
    </g>
    <g transform="matrix(0.21053,-0.017193,0.012787,0.156574,113.797339,345.439383)">
        <path d="M123.1,257.1C64.66,256.9 23.36,272.7 23.36,328C56.84,290.8 145.7,283.7 248.4,309.4C369.4,339.6 490.2,346.6 490.2,272.2C454.8,309.4 358.1,294.8 259.6,276.2C211.2,268.7 163.1,257.1 123.1,257.1Z" style="fill-rule:nonzero;"/>
    </g>
    <path d="M213.666,394.828C213.63,394.913 213.595,394.998 213.561,395.084C210.771,397.874 210.242,398.355 208.962,400.795C199.34,402.485 185.307,402.06 171.022,401.26C154.35,400.32 146.547,403.637 144.065,409.325C142.683,405.892 142.998,403.265 145.055,401.458C135.162,402.345 127.597,404.412 123.861,408.043C123.155,399.4 131.646,396.201 143.951,395.212C152.374,394.54 162.596,394.887 172.883,395.245C188.514,396.153 203.936,397.079 213.666,394.828Z"/>
    <g transform="matrix(1,0,0,1,0.116321,2.08415)">
        <path d="M207.647,368.026C197.898,370.019 183.437,370.961 170.105,369.591C147.173,367.24 129.351,367.686 122.779,374.087C121.827,362.438 146.489,360.424 172.039,364.2C175.019,364.367 177.975,364.488 180.882,364.534C184.947,364.409 188.162,364.179 190.923,363.473L198.936,365.731L207.647,368.026Z"/>
    </g>
    <g transform="matrix(0.970628,0,0,0.842293,4.066345,61.048705)">
        <path d="M216.458,369.99C216.858,370.127 217.529,370.444 218.011,370.673C218.509,370.909 219.617,370.921 220.02,371.351C216.676,382.161 191.888,381.95 169.233,379.623C146.301,377.272 128.531,378.345 121.958,384.745C121.319,376.916 132.244,373.439 147.143,372.27C154.428,371.691 162.993,371.984 171.082,373.199C190.232,376.063 207.823,374.826 216.458,369.99Z"/>
    </g>
    <g transform="matrix(0.281865,0,0,0.199174,60.154888,61.292057)">
        <path d="M400.9,104.8C388.9,134.8 359.9,152.7 301.2,148.7C287.5,146.9 273.6,144.6 259.6,142C140.5,104.8 135.835,78.272 135.835,152.672C169.315,115.472 141.1,148.4 248.4,175.2C365.2,204.4 490.2,216.4 490.2,123.4C471.8,142.7 436.8,152 393.6,153.8C403.6,143.4 406.1,127.1 400.9,104.8ZM147,187.5C76.25,187.2 80.432,210.805 80.432,260.805C113.912,223.605 141.1,218.8 248.4,245.6C365.2,274.8 490.2,290.8 490.2,197.8C454.8,235 360,237.4 259.6,205.8C221.9,193.9 181.6,187.6 147,187.5ZM123.1,257.1C64.66,256.9 23.36,272.7 23.36,328C56.84,290.8 145.7,283.7 248.4,309.4C369.4,339.6 490.2,346.6 490.2,272.2C454.8,309.4 358.1,294.8 259.6,276.2C211.2,268.7 163.1,257.1 123.1,257.1ZM123.1,331.4C64.66,331.3 23.36,347.2 23.36,402.4C42.39,381.3 78.88,372.1 125.9,371.6C115.5,382 113,398.5 118.2,421C132.1,386.2 170.2,369.2 248.5,383.8C371.1,406.6 490.2,421 490.2,346.6C454.8,383.8 358.1,365.2 259.6,346.6C211.2,339 163.1,331.5 123.1,331.4Z" style="fill-rule:nonzero;"/>
    </g>
</svg>
